<svg viewBox = "0 0 88 88" width="88" height="88" xmlns="http://www.w3.org/2000/svg"><g transform="matrix(1 0 0 1 44 44)"  ><path style="stroke: none; stroke-width: 1; stroke-dasharray: none; stroke-linecap: butt; stroke-dashoffset: 0; stroke-linejoin: miter; stroke-miterlimit: 4; fill: rgb(99,106,232); fill-rule: evenodd; opacity: 1;"  transform=" translate(-44, -44)" d="M 48.0961 32.4033 C 51.7929 26.5428 57.517 22.3271 62.7935 18.441 L 62.7938 18.4409 C 63.6392 17.8182 64.4732 17.204 65.2854 16.5929 C 66.2033 15.9023 67.4926 15.959 68.275 16.8017 C 73.7178 22.6642 77.0435 30.5025 77.0435 39.1138 C 77.0435 57.2763 62.2494 71.9999 44 71.9999 C 25.7506 71.9999 10.9565 57.2763 10.9565 39.1138 C 10.9565 30.4393 14.3311 22.5493 19.8451 16.673 C 20.6303 15.8363 21.9164 15.7847 22.8314 16.4751 C 23.693 17.1252 24.5798 17.7783 25.4796 18.441 C 30.7562 22.3271 36.4803 26.5428 40.1771 32.4033 C 42.5879 36.2253 44.1366 40.7469 44.1366 46.3328 C 44.1366 40.7469 45.6852 36.2253 48.0961 32.4033 Z M 44.1366 25.912 C 48.3837 20.3667 53.805 16.3805 58.1035 13.22 C 58.2997 13.0757 58.4936 12.9331 58.685 12.7922 C 59.5358 12.1656 60.3408 11.5727 61.1198 10.9866 C 64.6049 8.36444 69.9269 8.32693 73.3584 12.023 C 79.9503 19.1231 84 28.6494 84 39.1138 C 84 61.2149 66.0189 79 44 79 C 21.9811 79 4 61.2149 4 39.1138 C 4 28.5723 8.10947 18.9835 14.7871 11.8672 C 18.231 8.19691 23.536 8.25722 27.0048 10.8746 C 27.8285 11.4961 28.6823 12.1251 29.5882 12.7922 C 29.7795 12.9331 29.9734 13.0757 30.1697 13.22 C 34.4681 16.3805 39.8895 20.3667 44.1366 25.912 Z" stroke-linecap="round" /></g></svg>